HIERARCHY
ROOT Hips
{
 OFFSET 0.000000 0.000000 0.000000
 CHANNELS 6 Xposition Yposition Zposition Yrotation Xrotation Zrotation
 JOINT Chest
 {
  OFFSET 0.000000 9.588913 -0.003946
  CHANNELS 3 Yrotation Xrotation Zrotation
  JOINT Chest2
  {
   OFFSET 0.000000 9.541882 0.008053
   CHANNELS 3 Yrotation Xrotation Zrotation
   JOINT Chest3
   {
    OFFSET 0.000000 9.501360 0.000000
    CHANNELS 3 Yrotation Xrotation Zrotation
    JOINT Chest4
    {
     OFFSET 0.000000 9.491660 0.000000
     CHANNELS 3 Yrotation Xrotation Zrotation
     JOINT Neck
     {
      OFFSET 0.000000 14.331917 0.000000
      CHANNELS 3 Yrotation Xrotation Zrotation
      JOINT Head
      {
       OFFSET 0.000000 8.884799 0.017034
       CHANNELS 3 Yrotation Xrotation Zrotation
       End Site
       {
        OFFSET 0.000000 16.896195 0.008993
       }
      }
     }
     JOINT RightCollar
     {
      OFFSET -2.923010 9.499495 0.000000
      CHANNELS 3 Yrotation Xrotation Zrotation
      JOINT RightShoulder
      {
       OFFSET -13.795216 0.000000 0.000000
       CHANNELS 3 Yrotation Xrotation Zrotation
       JOINT RightElbow
       {
        OFFSET -30.272209 0.000000 0.000000
        CHANNELS 3 Yrotation Xrotation Zrotation
        JOINT RightWrist
        {
         OFFSET -24.478199 0.000000 0.000000
         CHANNELS 3 Yrotation Xrotation Zrotation
         End Site
         {
          OFFSET -18.090752 0.000000 0.000000
         }
        }
       }
      }
     }
     JOINT LeftCollar
     {
      OFFSET 2.923010 9.499495 0.000000
      CHANNELS 3 Yrotation Xrotation Zrotation
      JOINT LeftShoulder
      {
       OFFSET 13.795216 0.000000 0.000000
       CHANNELS 3 Yrotation Xrotation Zrotation
       JOINT LeftElbow
       {
        OFFSET 30.272209 0.000000 0.000000
        CHANNELS 3 Yrotation Xrotation Zrotation
        JOINT LeftWrist
        {
         OFFSET 24.478199 0.000000 0.000000
         CHANNELS 3 Yrotation Xrotation Zrotation
         End Site
         {
          OFFSET 18.090752 0.000000 0.000000
         }
        }
       }
      }
     }
    }
   }
  }
 }
 JOINT RightHip
 {
  OFFSET -7.826875 0.019532 0.001973
  CHANNELS 3 Yrotation Xrotation Zrotation
  JOINT RightKnee
  {
   OFFSET 0.000000 -40.546152 -0.001885
   CHANNELS 3 Yrotation Xrotation Zrotation
   JOINT RightAnkle
   {
    OFFSET 0.000000 -39.417092 -0.003189
    CHANNELS 3 Yrotation Xrotation Zrotation
    JOINT RightToe
    {
     OFFSET 0.000000 -7.579396 17.243563
     CHANNELS 3 Yrotation Xrotation Zrotation
     End Site
     {
      OFFSET 0.000000 -1.500329 6.694466
     }
    }
   }
  }
 }
 JOINT LeftHip
 {
  OFFSET 7.826875 0.019532 0.001973
  CHANNELS 3 Yrotation Xrotation Zrotation
  JOINT LeftKnee
  {
   OFFSET 0.000000 -40.546152 -0.001885
   CHANNELS 3 Yrotation Xrotation Zrotation
   JOINT LeftAnkle
   {
    OFFSET 0.000000 -39.417092 -0.003189
    CHANNELS 3 Yrotation Xrotation Zrotation
    JOINT LeftToe
    {
     OFFSET 0.000000 -7.579396 17.243563
     CHANNELS 3 Yrotation Xrotation Zrotation
     End Site
     {
      OFFSET 0.000000 -1.500329 6.694466
     }
    }
   }
  }
 }
}
MOTION
Frames: 14
Frame Time: 0.008333
0.000000 87.345680 0.000000 0.000000 -5.767889 0.000000 0.000000 11.653876 0.000000 0.000000 -5.885988 0.000000 0.000000 -0.000000 0.000000 0.000000 -0.000000 0.000000 0.000000 12.528808 0.000000 0.000000 0.711711 0.000000 0.000000 -0.000000 0.000000 0.000000 -0.000000 0.000000 2.309063 -0.000000 0.000000 -2.309063 -0.000000 -0.000000 0.000000 -0.000000 0.000000 0.000000 0.000000 0.000000 -2.309063 0.000000 0.000000 2.309063 -0.000000 0.000000 0.000000 8.520374 0.000000 0.000000 1.905768 0.000000 -0.000000 -4.658254 0.000000 0.000000 -0.000000 0.000000 0.000000 8.520374 0.000000 0.000000 1.905768 0.000000 -0.000000 -4.658254 0.000000 0.000000 -0.000000 0.000000
-11.844888 87.911257 -28.038741 130.283561 -11.896093 1.741134 2.042289 1.910617 -0.151421 1.177668 1.092936 -0.076366 1.471925 1.366397 -0.091949 1.177668 1.092936 -0.076366 4.325117 25.967190 2.318845 4.207582 2.688399 1.552759 -0.262718 1.897568 1.784439 -7.114750 4.455860 87.043264 0.861688 0.721653 -0.672211 1.102966 -2.555037 -2.806442 -2.147740 2.078990 1.732878 10.852500 3.789395 -89.980344 -1.037002 0.017972 0.093903 -3.131677 -0.347907 3.170714 -6.459726 17.794537 -13.829701 2.527130 1.424836 0.342366 -0.327969 -7.112256 9.125605 0.003620 -0.110295 -0.177821 14.291050 14.205287 8.665224 6.033423 5.976652 1.929196 3.788784 -8.789623 -7.056630 -0.000743 0.003522 -0.023633
-11.846854 87.910878 -28.049023 130.324830 -11.893819 1.728462 2.043776 1.924755 -0.150590 1.178589 1.100513 -0.073935 1.473083 1.375861 -0.088884 1.178589 1.100513 -0.073935 4.368646 25.920718 2.300209 4.258969 2.632138 1.522071 -0.249511 1.896563 1.779509 -7.098315 4.458367 87.039195 0.866367 0.717361 -0.669985 1.099557 -2.548102 -2.797844 -2.146788 2.077588 1.732316 10.849464 3.769879 -89.984412 -1.053437 0.035033 0.079636 -3.138589 -0.348497 3.187148 -6.533411 17.819455 -13.844439 2.480442 1.368346 0.333893 -0.289799 -7.061830 9.199505 0.001840 -0.115939 -0.186334 14.266580 14.178140 8.661293 6.020971 6.016042 1.940294 3.787290 -8.809451 -7.053635 -0.001398 0.006473 -0.020894
-11.850640 87.910609 -28.061046 130.363176 -11.889606 1.716236 2.046133 1.938107 -0.150431 1.180005 1.107878 -0.072036 1.474857 1.385061 -0.086482 1.180005 1.107878 -0.072036 4.415974 25.874675 2.283768 4.314068 2.576696 1.492953 -0.235253 1.896912 1.774789 -7.077046 4.461018 87.035120 0.870245 0.714178 -0.666592 1.094306 -2.543142 -2.788523 -2.146071 2.076498 1.732134 10.845103 3.752676 -89.991227 -1.069572 0.048827 0.067688 -3.142384 -0.347441 3.201690 -6.605836 17.841696 -13.861136 2.428733 1.311852 0.324211 -0.246876 -7.008492 9.278514 0.001523 -0.122641 -0.194693 14.245367 14.153503 8.656107 6.013499 6.047277 1.948663 3.782631 -8.827184 -7.047798 -0.002197 0.010763 -0.018027
-11.856305 87.910603 -28.074523 130.400702 -11.886164 1.703356 2.048986 1.951850 -0.150703 1.181836 1.115774 -0.070438 1.477151 1.394925 -0.084453 1.181836 1.115774 -0.070438 4.465956 25.829167 2.269700 4.371577 2.522153 1.465857 -0.224325 1.897534 1.769888 -7.050801 4.461339 87.031111 0.870799 0.714808 -0.661587 1.089310 -2.540156 -2.780856 -2.147242 2.074743 1.730829 10.839348 3.736830 -89.999712 -1.085735 0.059151 0.059968 -3.142314 -0.343943 3.213587 -6.678052 17.863968 -13.878575 2.375265 1.255787 0.313312 -0.203085 -6.952820 9.361439 0.002665 -0.130226 -0.202205 14.226441 14.133242 8.651912 6.008943 6.070791 1.953370 3.775209 -8.843315 -7.039789 -0.003275 0.016442 -0.014333
-11.864236 87.910902 -28.089043 130.440065 -11.883761 1.689859 2.051448 1.966640 -0.151518 1.183495 1.124583 -0.068905 1.479229 1.405933 -0.082504 1.183495 1.124583 -0.068905 4.516487 25.783813 2.257284 4.429327 2.467924 1.440456 -0.218163 1.896701 1.762810 -7.022868 4.459335 87.028635 0.867635 0.720313 -0.656524 1.084208 -2.537867 -2.774592 -2.150255 2.070849 1.728167 10.831654 3.723368 -90.009590 -1.102626 0.065293 0.056283 -3.138925 -0.336307 3.224072 -6.751235 17.886847 -13.897997 2.324922 1.199554 0.303880 -0.163417 -6.895415 9.445236 0.004662 -0.138161 -0.207832 14.208178 14.118545 8.649506 5.999134 6.083943 1.951304 3.770869 -8.856567 -7.027925 -0.004668 0.023665 -0.010178
-11.875156 87.911395 -28.103922 130.481663 -11.878950 1.676603 2.053300 1.981965 -0.153601 1.184658 1.133739 -0.067620 1.480685 1.417373 -0.080864 1.184658 1.133739 -0.067620 4.566462 25.738539 2.246282 4.486150 2.413858 1.416736 -0.215425 1.894838 1.752858 -6.996630 4.455620 87.029196 0.863326 0.732709 -0.653129 1.077792 -2.537383 -2.768615 -2.153965 2.066692 1.725629 10.823249 3.710442 -90.021071 -1.121156 0.070995 0.054853 -3.135118 -0.326006 3.237261 -6.823654 17.907219 -13.918857 2.277599 1.142134 0.295253 -0.128846 -6.836812 9.529091 0.007089 -0.145377 -0.211160 14.186901 14.105104 8.644836 5.983018 6.088423 1.945024 3.773000 -8.866585 -7.012097 -0.006400 0.032009 -0.006742
-11.890786 87.911942 -28.119417 130.520324 -11.866132 1.673872 2.057340 1.995677 -0.167540 1.185083 1.142262 -0.066996 1.481219 1.428025 -0.080055 1.185083 1.142262 -0.066996 4.616802 25.693817 2.237382 4.542915 2.360592 1.395249 -0.210745 1.892499 1.743512 -6.973470 4.450148 87.030421 0.859778 0.751862 -0.650229 1.071155 -2.537598 -2.764460 -2.155583 2.064869 1.727142 10.817580 3.694875 -90.033700 -1.141931 0.081521 0.053811 -3.130694 -0.317549 3.252335 -6.890308 17.914417 -13.948257 2.227115 1.083416 0.284485 -0.095712 -6.753371 9.612989 0.013499 -0.170668 -0.210616 14.161104 14.089187 8.623827 5.967735 6.092165 1.939266 3.778274 -8.892218 -6.994642 -0.006792 0.053292 -0.003620
-11.908960 87.912489 -28.132985 130.563998 -11.845934 1.661424 2.056763 2.009264 -0.173743 1.184200 1.149668 -0.067363 1.480113 1.437283 -0.080493 1.184200 1.149668 -0.067363 4.667316 25.649791 2.230170 4.599513 2.308290 1.375583 -0.201640 1.888012 1.736814 -6.954763 4.445060 87.030378 0.858136 0.775560 -0.646787 1.066182 -2.539187 -2.766816 -2.152708 2.063576 1.731473 10.812810 3.678487 -90.043435 -1.164204 0.095117 0.051250 -3.126341 -0.311492 3.266007 -6.956178 17.917587 -13.965380 2.169917 1.024679 0.270816 -0.059273 -6.692555 9.698379 0.016622 -0.175585 -0.209968 14.129795 14.063262 8.609851 5.957484 6.087831 1.929808 3.779251 -8.901558 -6.973736 -0.007624 0.066208 -0.000755
-11.930669 87.913156 -28.145828 130.611950 -11.818618 1.649939 2.054995 2.022713 -0.180663 1.182444 1.156568 -0.068505 1.477915 1.445912 -0.081904 1.182444 1.156568 -0.068505 4.713636 25.604960 2.222691 4.651520 2.254838 1.356557 -0.192951 1.879145 1.730416 -6.939395 4.443118 87.030882 0.859149 0.801000 -0.644824 1.064687 -2.543366 -2.774879 -2.148949 2.060821 1.733735 10.805505 3.661913 -90.047875 -1.186426 0.108145 0.045725 -3.123770 -0.306042 3.278288 -7.027784 17.911604 -13.983741 2.110024 0.965404 0.255663 -0.020369 -6.632276 9.784361 0.020261 -0.178435 -0.208305 14.095367 14.032415 8.592974 5.954103 6.075530 1.915717 3.771810 -8.907603 -6.950502 -0.007206 0.080658 0.003997
-11.955199 87.914165 -28.158205 130.662862 -11.788433 1.638858 2.052877 2.037030 -0.187244 1.180584 1.163768 -0.069963 1.475584 1.454916 -0.083709 1.180584 1.163768 -0.069963 4.754063 25.558128 2.213928 4.697261 2.198644 1.337422 -0.186426 1.869744 1.723769 -6.926440 4.438365 87.031135 0.861042 0.824146 -0.644987 1.066646 -2.547641 -2.784590 -2.147411 2.058876 1.732429 10.796377 3.643027 -90.049955 -1.206909 0.117532 0.038416 -3.123844 -0.300247 3.287248 -7.108079 17.898892 -14.004727 2.051701 0.907882 0.240583 0.020664 -6.572651 9.870335 0.024317 -0.180369 -0.206128 14.058701 13.998405 8.573299 5.953854 6.060604 1.900844 3.760626 -8.912292 -6.927477 -0.006631 0.095419 0.010174
-11.981991 87.915705 -28.170264 130.713787 -11.758523 1.627413 2.050930 2.053482 -0.192609 1.178843 1.171953 -0.071212 1.473403 1.465150 -0.085250 1.178843 1.171953 -0.071212 4.792048 25.508519 2.203404 4.740643 2.138928 1.316878 -0.180350 1.862425 1.716246 -6.917782 4.426925 87.030461 0.864886 0.843441 -0.646149 1.069398 -2.548986 -2.794497 -2.149293 2.058653 1.727055 10.785441 3.619565 -90.050740 -1.222727 0.118852 0.029731 -3.126933 -0.295566 3.293093 -7.194448 17.881377 -14.026842 1.994688 0.854648 0.225139 0.064512 -6.513560 9.955801 0.028475 -0.182323 -0.203212 14.019820 13.961117 8.551334 5.952839 6.050770 1.887509 3.751566 -8.918344 -6.904378 -0.006301 0.108969 0.015694
-12.011372 87.917775 -28.181874 130.761719 -11.726864 1.616340 2.049731 2.072166 -0.197157 1.177489 1.181291 -0.072080 1.471707 1.476825 -0.086309 1.177489 1.181291 -0.072080 4.829970 25.454504 2.190495 4.784405 2.073795 1.293693 -0.171673 1.853032 1.704667 -6.916602 4.414854 87.032617 0.875207 0.859306 -0.648599 1.072855 -2.548839 -2.803386 -2.153835 2.057656 1.717339 10.771230 3.589760 -90.049377 -1.232214 0.111435 0.018291 -3.131330 -0.295946 3.299013 -7.282056 17.856190 -14.049130 1.940273 0.807305 0.208665 0.109173 -6.455593 10.040846 0.032640 -0.184019 -0.199469 13.975546 13.918445 8.525287 5.952133 6.048391 1.874614 3.748316 -8.925762 -6.879660 -0.005986 0.120657 0.019870
-12.043822 87.920299 -28.192814 130.805866 -11.690290 1.605637 2.048242 2.091148 -0.202340 1.176346 1.190924 -0.072958 1.470274 1.488869 -0.087379 1.176346 1.190924 -0.072958 4.868597 25.396388 2.176167 4.829183 2.003684 1.268761 -0.156035 1.842431 1.689938 -6.923928 4.405027 87.039411 0.892446 0.872496 -0.651124 1.078798 -2.553591 -2.813573 -2.155255 2.055964 1.707247 10.754608 3.556452 -90.046292 -1.236689 0.099645 0.005276 -3.138347 -0.302598 3.302910 -7.365472 17.820796 -14.071469 1.890716 0.765716 0.193584 0.151124 -6.398614 10.125557 0.036528 -0.185595 -0.195853 13.920585 13.868238 8.491569 5.952141 6.052731 1.864836 3.754845 -8.934267 -6.854936 -0.006206 0.131023 0.023045
